<svg width="179" height="26" viewBox="0 0 179 26" fill="none" xmlns="http://www.w3.org/2000/svg">
<rect x="0.64624" y="19.5103" width="29.4482" height="7.39855" transform="rotate(-40 0.64624 19.5103)" fill="#D1D1D1"/>
<rect x="38.406" y="19.5103" width="29.4482" height="7.39855" transform="rotate(-40 38.406 19.5103)" fill="#D1D1D1"/>
<rect x="76.166" y="19.5103" width="29.4482" height="7.39855" transform="rotate(-40 76.166 19.5103)" fill="#D1D1D1"/>
<rect x="113.926" y="19.5103" width="29.4482" height="7.39855" transform="rotate(-40 113.926 19.5103)" fill="#D1D1D1"/>
<rect x="151.686" y="19.5103" width="29.4482" height="7.39855" transform="rotate(-40 151.686 19.5103)" fill="#D1D1D1"/>
<rect x="5.40186" y="0.581436" width="29.4482" height="7.39855" transform="rotate(40 5.40186 0.581436)" fill="#D1D1D1"/>
<rect x="43.1619" y="0.581436" width="29.4482" height="7.39855" transform="rotate(40 43.1619 0.581436)" fill="#D1D1D1"/>
<rect x="80.9216" y="0.581436" width="29.4482" height="7.39855" transform="rotate(40 80.9216 0.581436)" fill="#D1D1D1"/>
<rect x="118.682" y="0.581436" width="29.4482" height="7.39855" transform="rotate(40 118.682 0.581436)" fill="#D1D1D1"/>
<rect x="156.441" y="0.581436" width="29.4482" height="7.39855" transform="rotate(40 156.441 0.581436)" fill="#D1D1D1"/>
</svg>
